<?xml version="1.0" standalone="no"?>
<!DOCTYPE svg PUBLIC "-//W3C//DTD SVG 20010904//EN"
 "http://www.w3.org/TR/2001/REC-SVG-20010904/DTD/svg10.dtd">
<svg version="1.0" xmlns="http://www.w3.org/2000/svg"
 width="602.000000pt" height="607.000000pt" viewBox="0 0 602.000000 607.000000"
 preserveAspectRatio="xMidYMid meet">

<g transform="translate(0.000000,607.000000) scale(0.100000,-0.100000)"
fill="#000000" stroke="none">
<path d="M0 3035 l0 -3035 853 0 c775 0 1409 8 1365 18 -10 2 -18 8 -18 13 0
16 -27 39 -44 39 -12 0 -16 10 -16 35 0 19 -3 35 -7 36 -67 10 -73 8 -73 -28
l0 -35 -31 26 c-33 28 -61 36 -35 11 16 -16 12 -45 -7 -45 -6 0 -25 13 -42 30
-44 43 -185 69 -185 34 0 -13 -7 -15 -32 -10 -18 4 -58 11 -88 16 -96 14 -180
34 -180 42 0 5 -9 8 -20 8 -11 0 -20 4 -20 9 0 4 -55 14 -122 21 -67 7 -135
16 -150 21 -15 4 -28 4 -28 -1 0 -15 -179 37 -180 53 0 4 0 18 0 32 0 20 -5
25 -26 25 -15 0 -42 9 -60 21 l-34 21 0 -23 c0 -21 -1 -22 -20 -4 -11 10 -20
13 -20 7 0 -7 -16 -4 -42 8 -24 10 -61 22 -83 26 -44 7 -95 30 -95 42 0 4 -25
34 -55 65 -63 67 -71 93 -58 205 7 68 6 82 -9 108 -11 17 -18 49 -18 77 0 32
-4 47 -13 47 -8 0 -18 21 -25 53 -6 28 -14 65 -18 80 -3 16 -2 38 4 50 30 65
61 157 65 191 3 21 11 42 19 47 25 16 99 22 125 10 24 -11 25 -15 21 -69 -6
-68 6 -109 34 -118 16 -5 29 3 57 34 21 23 49 43 67 47 27 5 32 12 38 43 3 20
6 47 6 60 0 13 6 29 13 36 7 8 35 41 62 75 48 58 85 78 85 46 0 -8 5 -15 11
-15 5 0 8 4 4 9 -3 6 11 13 32 16 56 10 63 13 63 30 0 10 -5 13 -12 9 -9 -5
-10 -4 -3 4 6 6 34 17 63 25 29 7 49 16 46 20 -4 4 7 7 24 7 18 0 32 5 32 10
0 6 18 10 40 10 29 0 40 4 40 15 0 12 13 15 60 15 l60 0 0 -35 c0 -19 5 -35
10 -35 6 0 10 5 10 10 0 6 5 10 10 10 6 0 10 -7 10 -15 0 -8 5 -15 10 -15 6 0
10 11 10 25 0 14 5 25 10 25 6 0 10 14 10 30 0 23 4 30 20 30 11 0 20 5 20 11
0 6 8 18 17 27 13 13 17 14 21 3 3 -10 10 -8 26 7 11 11 32 31 46 44 57 55 89
100 95 137 4 22 13 42 21 45 8 3 14 12 14 21 0 9 9 15 24 15 34 0 42 28 11 36
-14 3 -25 12 -25 19 0 7 -11 21 -25 31 -21 15 -25 27 -25 66 0 34 -4 48 -14
48 -13 0 -31 27 -28 43 1 4 -3 7 -8 7 -6 0 -10 7 -10 15 0 8 5 15 10 15 6 0
10 7 10 15 0 8 -6 15 -12 15 -9 0 -8 4 2 10 12 8 9 10 -13 10 -16 0 -26 4 -22
10 3 6 -2 13 -12 17 -10 4 -22 11 -26 17 -6 8 -10 7 -14 -1 -2 -7 -18 -13 -34
-13 -19 0 -29 -5 -29 -15 0 -8 -4 -15 -10 -15 -5 0 -25 -16 -44 -35 -39 -39
-56 -44 -56 -17 0 15 -2 15 -11 2 -8 -12 -10 -12 -8 5 4 59 -1 75 -25 75 -13
0 -27 6 -29 13 -4 9 -6 9 -6 0 -2 -31 -20 -9 -26 31 -9 57 2 109 21 102 8 -3
14 -1 14 4 0 6 -7 10 -16 10 -8 0 -13 4 -9 9 3 6 1 36 -4 68 -5 34 -5 59 0 61
29 11 -7 61 -44 62 -25 0 -48 25 -41 44 3 9 1 16 -6 16 -6 0 -8 -4 -5 -10 3
-5 1 -10 -4 -10 -6 0 -11 5 -11 10 0 6 -7 10 -15 10 -8 0 -15 3 -15 8 0 4 -10
12 -22 17 -18 8 -23 18 -23 47 -1 46 6 42 95 -44 36 -35 80 -73 98 -86 105
-74 295 -163 412 -193 135 -34 160 -39 181 -39 11 0 37 -11 57 -25 l37 -25
-63 0 c-61 0 -63 -1 -56 -22 6 -19 2 -18 -24 10 -25 27 -37 32 -76 32 -25 0
-46 5 -46 10 0 6 -21 10 -46 10 -27 0 -43 -4 -39 -10 4 -6 -8 -10 -29 -10 -24
0 -36 -5 -36 -14 0 -25 12 -46 26 -46 8 0 17 -6 19 -13 4 -9 26 -11 81 -9 80
4 114 -10 114 -49 0 -10 5 -21 10 -24 23 -14 7 -25 -35 -25 -25 0 -45 -4 -45
-10 0 -5 23 -10 50 -10 28 0 50 -4 50 -10 0 -5 -13 -10 -30 -10 -38 0 -30 -28
11 -37 26 -5 28 -9 35 -70 4 -42 10 -60 15 -52 6 10 9 11 9 2 0 -7 8 -13 18
-13 22 0 42 -19 42 -40 0 -8 23 -37 50 -63 33 -32 50 -57 50 -73 0 -20 5 -24
29 -24 17 0 51 -11 77 -25 26 -14 57 -25 70 -25 13 0 26 -5 29 -10 4 -6 12
-10 18 -9 7 1 25 -3 40 -9 35 -15 57 -15 57 -2 0 22 38 8 84 -30 26 -22 43
-40 36 -40 -10 0 -10 -3 0 -15 7 -8 9 -15 5 -15 -4 0 -2 -6 4 -14 7 -8 16 -27
21 -43 8 -27 8 -26 10 12 l1 40 24 -47 c14 -25 36 -55 51 -67 14 -11 23 -24
20 -29 -3 -5 7 -28 23 -50 26 -34 36 -41 79 -47 39 -5 58 -2 93 14 24 11 78
27 119 36 92 18 183 50 188 64 2 6 22 11 45 10 23 0 36 -3 29 -6 -6 -2 -12
-13 -12 -24 0 -16 7 -19 53 -19 28 0 69 5 90 11 28 7 53 7 94 -2 44 -10 58
-10 61 -1 2 8 32 12 92 12 l88 0 31 -39 c17 -21 31 -43 31 -48 0 -5 9 -19 20
-31 l21 -22 -23 -1 c-18 -1 -19 -2 -5 -6 26 -7 68 -51 54 -57 -8 -3 -8 -5 1
-5 7 -1 18 -6 25 -11 7 -6 28 -24 47 -40 19 -17 50 -40 67 -53 18 -12 33 -28
33 -34 0 -7 6 -13 14 -13 15 0 86 -74 86 -90 0 -6 8 -10 18 -10 38 0 45 -136
8 -162 -11 -8 10 -62 31 -79 8 -7 44 -17 81 -23 54 -9 69 -16 77 -34 8 -19 18
-22 62 -22 32 0 53 -5 56 -12 4 -10 6 -10 6 0 2 20 28 14 34 -9 4 -15 2 -19
-9 -15 -8 3 -14 0 -14 -6 0 -7 -5 -6 -15 2 -12 10 -15 9 -15 -4 0 -10 -5 -14
-10 -11 -13 8 -30 -37 -30 -78 0 -24 -3 -28 -10 -17 -6 10 -10 11 -10 3 0 -7
-9 -13 -20 -13 -17 0 -20 -7 -20 -50 0 -33 5 -54 16 -62 8 -7 24 -21 35 -31
25 -22 133 -23 125 0 -3 8 2 13 14 13 11 0 20 7 20 15 0 11 12 15 50 15 38 0
52 4 57 17 4 9 1 19 -5 21 -7 2 -12 17 -12 33 0 28 -2 29 -44 29 l-43 0 -18
65 c-9 36 -21 65 -26 65 -5 0 -9 7 -9 15 0 10 10 15 28 15 15 0 34 5 42 10 13
9 13 11 0 20 -8 5 -20 10 -26 10 -5 0 -21 10 -34 22 -17 16 -37 23 -65 23 -38
0 -40 2 -49 37 -9 34 -13 38 -43 38 -35 0 -39 10 -27 56 9 32 74 51 127 37 25
-7 43 -8 45 -2 2 5 9 9 15 9 19 0 86 -35 87 -45 0 -6 10 -19 23 -30 l22 -20
-40 -3 c-57 -5 -63 -16 -27 -51 34 -35 82 -43 82 -13 0 9 7 26 15 36 8 10 12
22 9 27 -2 4 17 29 44 56 26 26 54 63 61 80 7 18 20 33 28 33 8 0 12 -4 9 -9
-3 -4 3 -16 14 -26 20 -18 20 -17 20 13 0 27 -4 32 -24 32 -51 0 -76 25 -33
33 12 2 2 5 -23 6 -35 2 -41 4 -25 11 11 5 35 9 53 9 17 1 32 6 32 11 0 6 -4
10 -10 10 -5 0 -10 7 -10 15 0 11 12 15 50 15 29 0 50 5 50 11 0 6 14 9 33 7
24 -2 33 -8 35 -25 2 -13 19 -37 38 -55 19 -18 34 -38 34 -45 0 -7 8 -13 18
-13 9 0 27 -3 40 -6 16 -5 22 -2 22 10 0 19 12 20 79 4 l51 -11 0 -84 0 -83
-40 0 c-33 0 -42 -4 -52 -24 -15 -35 -5 -52 51 -83 53 -29 66 -53 30 -53 -11
0 -17 -5 -14 -10 4 -6 9 -8 13 -6 11 6 37 -16 52 -44 7 -13 24 -33 37 -43 24
-20 56 -71 48 -79 -9 -9 30 -36 62 -43 25 -5 34 -2 42 13 12 22 71 48 71 31 0
-6 4 -8 8 -5 19 11 33 -14 37 -68 3 -32 8 -64 12 -70 3 -6 3 -8 -2 -4 -5 5
-13 -2 -19 -14 -6 -12 -24 -29 -41 -38 -24 -13 -35 -33 -62 -110 -18 -52 -33
-102 -33 -112 0 -10 -11 -25 -24 -33 -23 -16 -50 -68 -40 -78 7 -7 -57 -15
-134 -17 -55 -1 -65 2 -82 22 -11 13 -19 30 -20 39 0 9 -7 22 -15 29 -8 7 -15
21 -15 31 0 11 -4 19 -10 19 -5 0 -10 11 -10 25 0 14 4 25 9 25 4 0 11 39 14
88 4 48 12 103 18 121 9 25 9 39 1 51 -6 10 -14 45 -18 79 -4 42 -11 61 -20
61 -10 0 -14 17 -14 65 0 51 -3 63 -14 59 -8 -3 -17 -1 -21 5 -4 7 7 11 29 11
29 0 36 4 36 20 0 18 -7 20 -69 20 l-68 0 3 -92 c2 -51 1 -84 -3 -73 -3 11
-14 27 -24 35 -9 9 -21 29 -25 44 -3 15 -13 30 -21 33 -16 6 -52 -23 -64 -52
-7 -19 -8 -19 -8 3 -1 12 4 22 9 22 6 0 10 8 10 18 -1 15 -2 15 -16 -3 -8 -11
-21 -28 -29 -37 -13 -16 -13 -18 0 -18 8 0 15 -4 15 -10 0 -5 -7 -10 -15 -10
-8 0 -15 -4 -15 -9 0 -5 -12 -14 -28 -19 l-27 -10 28 -1 c37 -1 34 -17 -5 -26
l-33 -8 35 -7 35 -7 -32 -8 c-18 -4 -33 -11 -33 -16 0 -5 -11 -9 -24 -9 -19 0
-23 -4 -19 -20 4 -15 0 -20 -16 -20 -12 0 -19 -4 -16 -10 3 -5 -1 -10 -10 -10
-14 0 -16 -6 -10 -27 3 -15 12 -31 18 -35 21 -13 -22 -46 -66 -51 -23 -3 -66
-10 -96 -17 -73 -15 -343 -10 -349 8 -4 14 -72 17 -72 3 0 -5 -13 -12 -30 -16
-16 -4 -30 -10 -30 -14 0 -17 -51 -31 -71 -20 -11 6 -27 8 -35 5 -8 -3 -14 -1
-14 3 0 13 -33 23 -39 12 -4 -5 -29 -8 -56 -6 -28 2 -90 7 -139 11 -59 4 -87
3 -83 -4 9 -13 -47 -35 -70 -28 -11 3 -28 -1 -39 -9 -10 -8 -40 -15 -65 -15
-38 0 -48 -4 -52 -20 -3 -12 -14 -20 -26 -20 -12 0 -21 -4 -21 -10 0 -5 -9
-10 -20 -10 -11 0 -20 -4 -20 -10 0 -6 -28 -10 -64 -10 -36 0 -68 -5 -71 -10
-3 -6 -16 -10 -29 -10 -12 0 -32 -9 -44 -20 -12 -11 -26 -20 -32 -20 -5 0 -10
-4 -10 -10 0 -5 7 -10 16 -10 20 0 13 -24 -9 -28 -9 -2 -24 4 -33 12 -8 9 -24
16 -35 16 -10 0 -19 5 -19 10 0 18 -55 11 -70 -10 -11 -15 -26 -20 -57 -20
-64 0 -115 28 -80 44 10 5 10 7 0 12 -7 3 -13 15 -13 27 0 15 -12 27 -38 40
-24 12 -42 29 -50 50 -25 61 -38 82 -55 85 -14 3 -17 -4 -17 -38 l0 -41 -74 5
c-69 5 -74 4 -69 -14 6 -21 -17 -50 -39 -50 -7 0 -19 -9 -26 -20 -7 -11 -19
-20 -27 -20 -8 0 -15 -4 -15 -10 0 -5 -7 -10 -15 -10 -8 0 -15 -9 -15 -20 0
-11 5 -20 11 -20 6 0 9 -9 6 -20 -6 -22 23 -60 46 -60 8 0 18 -6 20 -12 4 -10
8 -10 16 2 5 8 8 17 5 21 -2 4 6 5 18 2 19 -4 20 -3 8 6 -10 7 -11 11 -2 11 6
0 12 7 12 15 0 9 9 15 21 15 18 0 19 -2 9 -15 -7 -8 -10 -24 -7 -34 6 -24 -17
-33 -116 -47 -29 -4 -45 -10 -39 -16 5 -5 758 -10 1871 -11 l1861 -2 0 2468
c0 1643 -3 2466 -10 2462 -6 -4 -10 10 -10 34 0 23 -4 41 -10 41 -5 0 -10 -9
-10 -20 0 -11 -4 -20 -10 -20 -6 0 -10 27 -10 60 0 33 -4 60 -10 60 -5 0 -10
-18 -10 -40 0 -22 -4 -40 -9 -40 -13 0 -24 55 -16 80 5 17 2 20 -22 19 -15 0
-22 -3 -15 -6 8 -3 12 -27 12 -69 l0 -64 -30 0 c-16 0 -30 -4 -30 -10 0 -5
-16 -10 -35 -10 -19 0 -35 5 -35 10 0 6 -7 10 -15 10 -8 0 -15 -4 -15 -10 0
-5 -3 -9 -7 -8 -25 5 -64 -24 -69 -51 -7 -34 -101 -111 -135 -111 -28 0 -79
-28 -79 -43 0 -14 -39 -32 -89 -41 l-34 -6 21 19 c12 10 22 21 22 25 0 14 -34
4 -51 -16 -11 -11 -19 -16 -19 -10 0 27 -29 -3 -35 -35 -13 -69 -68 -115 -170
-143 -43 -11 -102 -70 -71 -70 9 0 16 -7 16 -15 0 -20 -72 -38 -134 -32 -92 7
-236 31 -236 39 0 4 -6 8 -14 8 -8 0 -24 20 -36 45 -12 25 -27 45 -32 45 -12
0 -118 108 -118 119 0 4 -15 16 -32 26 -43 26 -118 36 -136 18 -7 -7 -9 -13
-4 -13 5 0 8 -18 8 -40 -1 -22 3 -40 9 -40 5 0 4 -5 -3 -12 -7 -7 -12 -19 -12
-27 0 -9 -23 -54 -52 -100 -49 -81 -52 -90 -54 -157 -1 -39 -6 -79 -12 -90 -8
-13 -11 -14 -12 -5 0 8 -24 -11 -54 -42 -30 -32 -58 -57 -62 -57 -10 0 -34
-48 -34 -67 0 -7 -5 -13 -11 -13 -5 0 -7 -4 -4 -10 3 -5 2 -10 -3 -10 -10 0
-32 -53 -32 -76 0 -8 5 -14 11 -14 14 0 38 -30 39 -48 0 -7 -15 -20 -34 -29
-21 -9 -37 -26 -41 -40 -5 -20 -9 -22 -19 -14 -8 7 -18 11 -22 10 -33 -6 -84
3 -84 14 0 13 -81 47 -111 47 -20 0 -31 54 -18 88 18 47 6 152 -16 152 -25 0
-113 -110 -124 -155 -9 -38 -41 -72 -41 -44 0 16 -23 34 -48 37 -17 3 -25 -2
-29 -17 -3 -12 -9 -21 -14 -21 -5 0 -9 -9 -9 -20 0 -11 -4 -20 -10 -20 -5 0
-10 -13 -10 -30 0 -16 -4 -39 -9 -52 -36 -95 -44 -130 -30 -139 11 -6 11 -11
2 -20 -6 -6 -9 -18 -6 -25 3 -8 0 -14 -6 -14 -6 0 -11 11 -11 24 0 13 -6 27
-12 29 -10 4 -10 6 0 6 6 1 12 8 12 16 0 10 -6 8 -22 -8 -16 -15 -19 -24 -11
-27 8 -4 6 -12 -7 -30 l-20 -25 0 43 c0 26 -4 41 -10 37 -5 -3 -10 -1 -10 4 0
6 5 11 11 11 6 0 3 7 -6 16 -24 24 -44 11 -41 -28 5 -51 6 -54 15 -39 5 7 14
12 22 9 8 -3 5 -11 -12 -27 -20 -18 -25 -20 -27 -7 -4 20 -33 6 -75 -36 -40
-39 -69 -44 -124 -20 -60 26 -118 73 -166 134 -21 27 -42 46 -47 43 -18 -11
-10 8 11 26 23 19 20 49 -4 45 -15 -2 -86 -55 -126 -93 -13 -13 -30 -23 -37
-23 -8 0 -14 -4 -14 -8 0 -16 -67 -12 -86 5 -19 17 -40 56 -32 60 2 1 -6 12
-18 25 -11 13 -32 48 -47 78 -33 69 -68 110 -76 88 -3 -8 -16 -14 -28 -13 -14
1 -30 -8 -40 -22 -19 -25 -53 -31 -53 -9 0 8 -11 17 -25 20 -27 7 -29 27 -5
37 11 5 5 11 -21 24 -19 9 -41 29 -48 43 -31 69 -55 104 -76 114 -24 11 -30
31 -41 131 -6 44 -8 47 -35 47 -21 0 -27 4 -23 15 4 9 0 15 -10 15 -11 0 -16
9 -16 30 0 17 -4 30 -10 30 -5 0 -11 15 -12 33 -1 18 -4 7 -8 -28 l-7 -60 -1
59 c-2 47 -5 57 -17 52 -8 -3 -15 -1 -15 4 0 6 -13 10 -30 10 -16 0 -30 -4
-30 -9 0 -5 -9 -11 -19 -14 -12 -3 -21 -16 -24 -33 -3 -22 -4 -18 -6 14 0 23
4 42 9 42 6 0 10 32 10 76 0 47 -4 73 -10 69 -5 -3 -10 -33 -10 -66 0 -33 -4
-59 -10 -59 -6 0 -10 30 -10 70 0 58 -3 68 -15 64 -8 -4 -15 -15 -15 -25 0
-11 -7 -22 -15 -25 -8 -4 -15 -17 -15 -30 0 -13 -4 -24 -10 -24 -5 0 -10 -9
-10 -20 0 -16 -7 -20 -32 -22 -28 -1 -26 -2 12 -7 l45 -7 -41 -7 -40 -8 -3
-52 c-1 -29 -4 -60 -7 -69 -3 -10 -1 -18 4 -18 21 0 22 -33 1 -51 -18 -16 -19
-19 -6 -19 10 0 17 -5 17 -10 0 -6 11 -21 25 -33 22 -19 26 -31 26 -83 1 -91
-35 -134 -71 -84 -13 19 -22 20 -82 14 -70 -7 -74 -5 -82 38 -10 48 -26 68
-56 68 -16 0 -30 -5 -30 -12 0 -6 -9 -1 -19 11 -14 16 -21 18 -24 9 -3 -7 -6
-3 -6 10 -1 12 -8 39 -16 59 -15 35 -12 60 4 34 6 -9 11 -10 15 -2 4 6 2 11
-3 11 -18 0 -12 29 8 39 10 6 22 27 26 47 3 21 20 50 36 66 33 34 36 45 12 45
-10 0 -28 1 -40 2 -23 1 -23 1 -3 21 11 11 20 26 21 33 6 67 5 94 -2 108 -5 9
-5 20 -1 24 4 3 7 10 7 13 1 4 6 17 13 30 10 17 22 22 52 22 44 0 77 15 98 43
10 13 22 16 42 12 45 -10 62 16 55 84 -4 31 -13 70 -21 88 -8 18 -16 52 -18
76 -2 24 -8 52 -14 62 -8 15 -6 27 5 48 17 35 11 57 -17 57 -11 0 -20 5 -20
11 0 5 -4 8 -8 5 -4 -2 -14 9 -21 25 -7 16 -16 27 -21 24 -4 -2 -15 4 -24 14
-13 15 -14 20 -4 23 15 5 -132 152 -208 208 -70 51 -90 77 -115 142 -17 47
-21 72 -17 129 6 79 22 99 73 97 17 0 72 14 123 32 60 20 103 30 121 27 16 -3
32 -2 37 2 5 5 30 11 55 14 38 5 50 3 63 -12 14 -15 14 -20 4 -24 -7 -3 3 -3
22 -1 19 2 42 5 50 6 8 1 34 -2 58 -7 30 -5 40 -11 30 -17 -29 -19 26 -32 128
-31 87 2 107 5 149 27 26 15 43 26 36 26 -6 0 -11 5 -11 10 0 6 11 10 25 10
14 0 25 5 25 10 0 6 13 10 29 10 16 0 42 7 57 15 37 19 50 19 58 0 4 -12 11
-13 32 -5 29 11 104 -4 104 -20 0 -6 5 -10 10 -10 6 0 10 9 10 20 0 16 7 20
36 20 22 0 43 7 53 18 19 21 61 28 71 12 4 -6 54 -16 111 -22 102 -10 165 -32
139 -48 -9 -5 -6 -12 11 -24 l23 -16 -22 0 c-12 0 -22 -6 -22 -13 0 -15 72
-39 80 -27 8 13 81 -14 97 -36 7 -10 13 -26 13 -35 0 -10 11 -30 25 -45 20
-22 26 -24 38 -13 27 29 47 64 47 86 0 12 11 34 23 49 l24 27 1 -31 c1 -42 10
-55 33 -49 18 5 27 -7 12 -16 -5 -2 -2 -2 5 0 8 2 23 -7 34 -19 13 -16 21 -19
24 -11 4 10 9 9 21 -2 8 -8 27 -15 43 -15 15 0 30 -6 33 -14 3 -7 18 -17 34
-20 15 -4 36 -14 45 -23 22 -20 64 -10 96 23 18 18 21 24 9 24 -10 0 -13 6
-10 20 4 14 0 20 -11 20 -18 0 -23 45 -6 55 6 3 10 17 10 31 0 17 5 24 20 24
17 0 20 -7 20 -40 0 -22 5 -40 10 -40 6 0 10 -7 10 -16 0 -11 6 -14 20 -9 14
4 20 2 20 -8 0 -18 27 -30 35 -17 4 6 15 10 26 10 10 0 19 6 19 14 0 8 15 16
38 19 51 9 305 22 370 20 28 0 52 2 52 6 0 8 61 0 113 -14 22 -6 27 -4 27 12
0 10 9 25 20 33 11 8 20 20 20 27 0 7 5 13 10 13 6 0 10 -7 10 -15 0 -8 5 -15
10 -15 6 0 10 -20 10 -45 0 -36 3 -45 18 -45 13 0 14 2 4 9 -11 7 -11 9 2 14
11 5 16 0 16 -14 0 -11 7 -27 15 -35 13 -14 17 -14 30 0 8 8 15 26 15 40 0 19
7 27 25 32 14 3 31 4 38 1 19 -7 129 14 152 29 31 22 73 17 101 -11 16 -16 36
-25 57 -25 18 0 52 -9 76 -20 24 -11 49 -20 57 -20 12 0 21 -51 16 -91 -2 -15
36 -37 75 -43 34 -5 43 -3 43 8 0 11 9 13 38 9 20 -3 39 -9 42 -12 16 -19 72
-28 117 -20 26 5 65 10 86 11 20 1 37 5 37 9 0 4 9 5 20 2 11 -3 20 -12 20
-19 0 -8 9 -14 20 -14 11 0 20 -4 20 -10 0 -5 -7 -10 -15 -10 -22 0 -18 -15
10 -46 14 -15 25 -35 25 -45 0 -10 5 -21 11 -24 11 -8 7 -55 -9 -97 -11 -28 0
-46 26 -42 6 1 16 2 21 3 5 0 11 14 14 29 5 23 11 28 41 30 49 3 88 -36 110
-110 13 -45 21 -58 37 -58 11 0 22 8 26 18 15 46 47 104 59 109 8 3 11 9 8 14
-3 5 1 9 8 10 7 0 21 2 31 4 9 2 17 -3 17 -11 0 -8 4 -14 8 -14 5 0 18 -9 30
-20 20 -19 22 -31 22 -125 0 -63 4 -105 10 -105 7 0 10 167 10 480 l0 480
-3010 0 -3010 0 0 -3035z m1330 1385 c0 -11 -7 -20 -15 -20 -13 0 -13 3 -3 20
7 11 14 20 15 20 2 0 3 -9 3 -20z m50 -325 c0 -8 -2 -15 -4 -15 -2 0 -6 7 -10
15 -3 8 -1 15 4 15 6 0 10 -7 10 -15z m25 -5 c3 -5 1 -10 -4 -10 -6 0 -11 5
-11 10 0 6 2 10 4 10 3 0 8 -4 11 -10z m-5 -30 c0 -5 -2 -10 -4 -10 -3 0 -8 5
-11 10 -3 6 -1 10 4 10 6 0 11 -4 11 -10z m105 -60 c-3 -5 -16 -10 -28 -10
-18 0 -19 2 -7 10 20 13 43 13 35 0z m324 -159 c22 -14 9 -30 -17 -20 -13 5
-20 13 -17 19 8 12 16 12 34 1z m1971 -61 c0 -5 9 -10 20 -10 17 0 20 -7 20
-51 0 -33 -4 -48 -11 -44 -6 4 -8 13 -5 21 3 8 -3 19 -13 26 -11 6 -17 17 -14
23 2 7 -3 15 -12 19 -9 3 -13 10 -10 16 8 13 25 13 25 0z m-1430 -1289 c0 -5
13 -12 30 -16 32 -7 51 -25 26 -25 -10 0 -17 -9 -17 -22 l-2 -23 -4 23 c-2 12
-10 22 -16 22 -7 0 -6 4 3 10 12 8 10 10 -8 10 -13 0 -20 -4 -17 -10 4 -6 -5
-10 -19 -10 -14 0 -26 -4 -26 -10 0 -5 -12 -10 -26 -10 -14 0 -23 4 -19 10 3
6 1 10 -4 10 -6 0 -11 -4 -11 -10 0 -5 -22 -10 -50 -10 -37 0 -50 4 -50 14 0
16 13 21 78 31 23 4 42 11 42 16 0 5 20 9 45 9 25 0 45 -4 45 -9z m-413 -120
c-6 -2 -13 1 -15 8 -2 6 -12 11 -23 11 -22 0 -24 6 -7 24 10 10 16 7 34 -13
14 -16 18 -28 11 -30z m-97 30 c0 -5 10 -12 23 -16 19 -6 19 -8 5 -12 -10 -2
-25 2 -33 11 -17 17 -19 26 -5 26 6 0 10 -4 10 -9z m95 -81 c3 -5 -3 -10 -14
-10 -12 0 -21 5 -21 10 0 6 6 10 14 10 8 0 18 -4 21 -10z m-955 -35 c0 -19 -4
-35 -10 -35 -5 0 -10 16 -10 35 0 19 5 35 10 35 6 0 10 -16 10 -35z m940 1 c0
-3 -4 -8 -10 -11 -5 -3 -10 -1 -10 4 0 6 5 11 10 11 6 0 10 -2 10 -4z m45 -26
c3 -5 -1 -10 -9 -10 -9 0 -16 5 -16 10 0 6 4 10 9 10 6 0 13 -4 16 -10z
m-1000 -120 c3 -5 -1 -10 -9 -10 -9 0 -16 5 -16 10 0 6 4 10 9 10 6 0 13 -4
16 -10z m4618 -1124 c14 -11 24 -23 22 -27 -3 -3 4 -14 15 -24 11 -10 20 -23
20 -30 0 -7 9 -20 20 -30 11 -10 18 -20 16 -23 -3 -2 4 -24 15 -49 19 -45 27
-122 10 -94 -7 11 -10 9 -16 -9 -6 -18 -9 -20 -16 -9 -7 11 -9 10 -9 -3 0 -10
-4 -18 -9 -18 -5 0 -12 -9 -16 -19 -4 -12 -12 -18 -21 -14 -15 6 -25 33 -28
82 -3 38 -4 40 -47 43 -18 2 -37 8 -41 13 -5 6 -8 5 -8 -2 0 -7 -7 -10 -15 -7
-8 4 -15 14 -15 24 0 9 -9 29 -20 43 -11 14 -20 39 -20 55 0 26 4 31 28 34 24
3 27 8 30 41 3 33 6 38 23 34 10 -3 19 -2 19 3 0 14 37 5 63 -14z m-3193 -890
c0 -2 -7 -6 -15 -10 -8 -3 -15 -1 -15 4 0 6 7 10 15 10 8 0 15 -2 15 -4z
m1423 -43 c-7 -2 -19 -2 -25 0 -7 3 -2 5 12 5 14 0 19 -2 13 -5z m-1780 -20
c-7 -2 -21 -2 -30 0 -10 3 -4 5 12 5 17 0 24 -2 18 -5z"/>
<path d="M2428 5953 c6 -2 18 -2 25 0 6 3 1 5 -13 5 -14 0 -19 -2 -12 -5z"/>
<path d="M2418 5933 c7 -3 16 -2 19 1 4 3 -2 6 -13 5 -11 0 -14 -3 -6 -6z"/>
<path d="M1460 5890 c0 -12 7 -20 18 -20 14 0 15 2 2 10 -16 10 -8 15 40 23
15 3 8 5 -17 6 -37 1 -43 -2 -43 -19z"/>
<path d="M4627 5549 c-9 -6 -29 -33 -43 -61 -14 -28 -36 -60 -49 -72 -12 -11
-25 -30 -27 -41 -2 -11 -10 -19 -16 -17 -8 1 -12 -13 -12 -42 0 -34 -4 -45
-19 -49 -13 -3 -21 -17 -25 -48 -4 -24 -9 -56 -12 -71 -3 -17 1 -31 11 -40 9
-7 21 -18 27 -24 9 -7 23 -4 52 11 44 23 77 75 122 194 13 36 28 69 33 75 4 6
11 23 15 39 6 25 0 32 -25 29 -9 -2 -22 105 -14 118 8 12 5 12 -18 -1z"/>
<path d="M3293 5328 c-26 -28 -29 -43 -20 -89 10 -49 32 -68 46 -40 6 11 11
29 11 40 0 12 5 29 11 39 7 12 7 25 0 45 -13 33 -21 34 -48 5z"/>
<path d="M1720 5134 c0 -66 1 -68 42 -103 44 -38 78 -56 78 -41 0 5 -5 12 -10
15 -15 9 0 27 17 21 10 -4 13 0 11 12 -2 9 -22 26 -45 37 -42 20 -64 46 -44
53 6 2 11 8 11 14 0 6 -6 8 -14 5 -9 -4 -12 0 -9 11 2 10 -5 22 -17 30 -19 12
-20 10 -20 -54z"/>
<path d="M1858 4953 c7 -3 16 -2 19 1 4 3 -2 6 -13 5 -11 0 -14 -3 -6 -6z"/>
<path d="M4210 4776 c0 -14 21 -26 45 -26 8 0 11 7 8 20 -6 23 -53 29 -53 6z"/>
<path d="M1460 4515 c0 -8 -4 -15 -10 -15 -5 0 -10 -6 -10 -13 0 -7 -9 -19
-20 -27 -11 -8 -20 -21 -20 -30 0 -9 -9 -22 -20 -30 -11 -8 -20 -22 -20 -32 0
-10 -4 -18 -10 -18 -5 0 -10 -9 -10 -19 0 -11 -6 -22 -12 -25 -10 -5 -10 -7 0
-12 8 -4 12 -29 12 -72 l1 -67 16 40 c8 22 18 57 20 78 4 27 10 37 23 37 11 0
22 10 26 22 l7 23 10 -25 11 -25 4 28 c3 21 10 29 33 34 41 8 44 19 15 54 -34
40 -33 49 5 49 36 0 32 11 -16 39 -28 16 -35 17 -35 6z"/>
<path d="M3860 4326 c0 -11 9 -16 27 -16 22 0 26 15 5 15 -4 0 -13 4 -19 8 -9
5 -13 3 -13 -7z"/>
<path d="M1540 4200 c31 -7 29 -8 -22 -9 -43 -1 -58 -5 -58 -15 0 -8 10 -17
23 -19 20 -4 20 -4 -3 -6 -15 0 -32 -7 -39 -13 -11 -10 -13 -10 -7 0 4 6 2 12
-3 12 -6 0 -11 -9 -11 -20 0 -19 7 -20 90 -20 53 0 90 4 90 10 0 6 -4 10 -10
10 -5 0 -10 5 -10 10 0 6 9 10 20 10 12 0 20 7 20 16 0 28 -27 44 -72 43 l-43
-2 35 -7z"/>
<path d="M3695 3970 c-3 -5 -1 -10 4 -10 6 0 11 5 11 10 0 6 -2 10 -4 10 -3 0
-8 -4 -11 -10z"/>
<path d="M1785 1460 c3 -5 28 -10 55 -10 27 0 52 5 55 10 4 6 -17 10 -55 10
-38 0 -59 -4 -55 -10z"/>
<path d="M1791 1330 c-8 -24 -8 -51 -1 -96 6 -35 11 -93 11 -129 1 -64 0 -68
-31 -94 -28 -23 -34 -35 -38 -83 -3 -37 1 -67 11 -89 8 -19 23 -55 32 -80 9
-25 31 -62 48 -81 68 -77 77 -92 77 -131 0 -30 4 -40 20 -44 15 -4 20 -14 20
-39 0 -40 12 -43 42 -9 14 16 32 25 52 25 24 0 27 3 16 10 -12 8 -11 10 8 10
18 0 22 6 22 31 0 24 9 40 37 64 35 30 36 33 24 65 -6 19 -23 47 -38 62 -17
18 -24 34 -20 47 5 19 1 21 -45 21 -44 0 -49 2 -43 18 19 45 17 62 -15 102
-17 22 -40 40 -51 40 -15 0 -19 7 -19 30 0 17 -7 42 -16 55 -12 19 -14 38 -9
87 11 107 11 206 -1 218 -6 6 -27 13 -46 16 -33 6 -36 4 -47 -26z"/>
<path d="M1911 1244 c0 -11 3 -14 6 -6 3 7 2 16 -1 19 -3 4 -6 -2 -5 -13z"/>
<path d="M5090 1025 c0 -60 3 -75 15 -75 12 0 15 15 15 75 0 60 -3 75 -15 75
-12 0 -15 -15 -15 -75z"/>
<path d="M4820 876 c0 -41 5 -78 10 -81 6 -4 10 23 10 74 0 47 -4 81 -10 81
-6 0 -10 -31 -10 -74z"/>
<path d="M4980 862 c0 -5 14 -7 30 -4 17 2 30 6 30 8 0 2 -13 4 -30 4 -16 0
-30 -4 -30 -8z"/>
<path d="M2220 500 c0 -5 5 -10 10 -10 6 0 10 5 10 10 0 6 -4 10 -10 10 -5 0
-10 -4 -10 -10z"/>
<path d="M2260 500 c0 -6 33 -10 80 -10 47 0 80 4 80 10 0 6 -33 10 -80 10
-47 0 -80 -4 -80 -10z"/>
<path d="M2360 460 c0 -5 9 -10 20 -10 11 0 20 5 20 10 0 6 -9 10 -20 10 -11
0 -20 -4 -20 -10z"/>
<path d="M2060 180 c0 -5 5 -10 10 -10 6 0 10 5 10 10 0 6 -4 10 -10 10 -5 0
-10 -4 -10 -10z"/>
</g>
</svg>
